<svg width="36" height="45" viewBox="0 0 36 45" fill="none" xmlns="http://www.w3.org/2000/svg">
<path d="M12.5062 18.5497C12.5062 17.9974 12.0584 17.5497 11.5062 17.5497C10.9539 17.5497 10.5062 17.9974 10.5062 18.5497H12.5062ZM10.5062 37.8666C10.5062 38.4189 10.9539 38.8666 11.5062 38.8666C12.0584 38.8666 12.5062 38.4189 12.5062 37.8666H10.5062ZM19.3229 18.5497C19.3229 17.9974 18.8752 17.5497 18.3229 17.5497C17.7706 17.5497 17.3229 17.9974 17.3229 18.5497H19.3229ZM17.3229 37.8666C17.3229 38.4189 17.7706 38.8666 18.3229 38.8666C18.8752 38.8666 19.3229 38.4189 19.3229 37.8666H17.3229ZM26.237 18.5497C26.237 17.9974 25.7893 17.5497 25.237 17.5497C24.6847 17.5497 24.237 17.9974 24.237 18.5497H26.237ZM24.237 37.8666C24.237 38.4189 24.6847 38.8666 25.237 38.8666C25.7893 38.8666 26.237 38.4189 26.237 37.8666H24.237ZM31.7878 13.2743C31.7878 12.722 31.3401 12.2743 30.7878 12.2743C30.2355 12.2743 29.7878 12.722 29.7878 13.2743H31.7878ZM10.5062 18.5497V37.8666H12.5062V18.5497H10.5062ZM17.3229 18.5497V37.8666H19.3229V18.5497H17.3229ZM24.237 18.5497V37.8666H26.237V18.5497H24.237ZM4.76062 13.2735V40.759H6.76062V13.2735H4.76062ZM4.76062 40.759C4.76062 42.2015 4.99672 43.4157 5.88683 44.1829C6.73477 44.9137 7.92648 45 9.07161 45V43C7.87959 43 7.41579 42.8603 7.19254 42.6679C7.01144 42.5118 6.76062 42.1055 6.76062 40.759H4.76062ZM9.07161 45H27.7689V43H9.07161V45ZM27.7689 45C28.9765 45 30.1238 44.7745 30.8909 43.8407C31.6057 42.9707 31.7878 41.711 31.7878 40.2425H29.7878C29.7878 41.6663 29.5803 42.2854 29.3456 42.5711C29.1633 42.7929 28.8012 43 27.7689 43V45ZM31.7878 40.2425V13.2743H29.7878V40.2425H31.7878ZM32.1562 12.2735C28.4523 12.2548 7.41439 12.2555 3.80778 12.2743L3.81817 14.2743C7.41784 14.2556 28.4489 14.2548 32.1461 14.2735L32.1562 12.2735ZM3.81298 7.15384H32.1511V5.15384H3.81298V7.15384ZM14.259 6.15384C14.259 4.65225 14.8212 3.6361 15.6027 2.98596C16.4083 2.31587 17.5233 1.97394 18.6887 2.00154C21.056 2.05759 23.1658 3.55803 23.1658 6.15384H25.1658C25.1658 2.13855 21.8222 0.0751751 18.7361 0.00209943C17.1748 -0.0348702 15.5632 0.41731 14.3237 1.44841C13.0602 2.49947 12.259 4.09162 12.259 6.15384H14.259ZM32.1511 7.15384C32.773 7.15384 33.1972 7.41927 33.4976 7.8452C33.8212 8.30422 34.0096 8.97592 33.9996 9.70705C33.9896 10.4375 33.7829 11.1181 33.4473 11.5864C33.1307 12.028 32.7125 12.2764 32.1562 12.2735L32.1461 14.2735C33.4399 14.2801 34.4338 13.6431 35.0728 12.7515C35.6927 11.8867 35.9851 10.7862 35.9994 9.73436C36.0138 8.68323 35.7518 7.57149 35.1321 6.69264C34.489 5.78071 33.4768 5.15384 32.1511 5.15384V7.15384ZM3.81298 5.15384C2.48581 5.15384 1.4772 5.78239 0.841308 6.69905C0.229791 7.58058 -0.0201979 8.69326 0.00127855 9.74155C0.02278 10.7911 0.318262 11.8871 0.929678 12.7484C1.55859 13.6344 2.53857 14.2809 3.81817 14.2743L3.80778 12.2743C3.28581 12.277 2.8781 12.0381 2.56058 11.5908C2.22556 11.1188 2.01587 10.4335 2.00086 9.70059C1.98582 8.96643 2.16796 8.29549 2.48462 7.83902C2.7769 7.41768 3.19251 7.15384 3.81298 7.15384V5.15384Z" fill="white"/>
</svg>
