<svg width="30" height="42" viewBox="0 0 30 42" fill="none" xmlns="http://www.w3.org/2000/svg">
<path d="M11.2428 34.5276L27.1595 10.8817M11.2428 34.5276L7.95933 29.9313M11.2428 34.5276C11.2428 34.5276 8.75437 35.9668 6.56774 37.0871M2.34575 28.5388L18.464 5.02854M2.34575 28.5388L7.95933 29.9313M2.34575 28.5388C2.34575 28.5388 2.18341 31.4775 1.99528 33.943M18.464 5.02854L19.0542 4.16769C23.5559 -2.52004 32.2641 3.29827 27.7423 10.0159L27.1595 10.8817M18.464 5.02854L22.8118 7.95511M27.1595 10.8817L22.8118 7.95511M7.95933 29.9313L22.8118 7.95511M1.99528 33.943C1.85634 35.764 1.50825 39.5151 1.50825 39.5151C1.50825 39.5151 4.95278 37.9145 6.56774 37.0871M1.99528 33.943C3.4713 34.9366 5.09172 36.0935 6.56774 37.0871" stroke="white" stroke-width="2"/>
</svg>
