<svg width="395" height="466" viewBox="0 0 395 466" fill="none" xmlns="http://www.w3.org/2000/svg">
<path d="M357.09 168.885C357.27 167.834 357.46 166.777 357.656 165.713C366.201 171.213 382.396 199.685 383.396 214.185C384.496 221.41 384.066 227.401 382.525 231.183C392.193 247.637 396.427 295.731 387.395 308.983C388.395 329.183 380.395 348.023 367.895 348.023C372.079 352.356 373.45 359.538 369.897 369.183C356.81 399.227 339.171 416.633 325.395 423.129C321.895 434.183 300.395 445.183 294.895 441.683C270.644 463.786 239.418 466.287 222.395 459.717C194.895 467.183 153.395 464.183 135.395 453.683C118.895 464.183 86.3953 452.183 78.3953 429.183C59.3788 420.538 52.8135 410.717 44.8953 393.683C22.7756 378.515 19.4285 359.371 22.9897 345.683C12.3954 351.183 -0.424228 320.683 2.39551 299.183C3.2425 292.725 4.40336 288.172 5.70718 285.183C4.33055 267.516 6.11814 256.329 9.39545 252.844C9.39545 249.917 10.5578 244.525 12.5965 237.683C5.70718 209.183 22.8954 178.183 40.3824 174.183C44.8326 166.849 49.4208 160.551 53.8954 156.183C53.8954 128.183 93.8954 99.6831 118.895 106.683C127.895 96.1831 147.895 90.1831 164.395 91.8808C189.733 76.2461 225.174 80.4215 241.395 90.1831C246.895 88.1831 270.897 94.1831 278.395 102.24C284.296 97.6035 294.33 99.3693 304.997 108.183C312.664 104.733 330.087 115.952 352.896 150.684C356.177 157.072 357.448 163.311 357.09 168.885Z" fill="#9089C2"/>
<path d="M255.397 189.185C245.396 156.185 200.896 199.185 238.897 222.185C267.896 238.185 303.897 187.685 270.897 154.685C249.396 136.189 221.16 143.564 205.072 161.683M336.396 252.685C313.396 244.685 333.396 295.185 349.896 268.185C368.396 220.685 290.897 202.185 298.896 268.185C305.67 305.437 340 312.183 361.095 289.183M373.396 214.185C365.396 200.683 380.396 196.685 383.396 214.185M383.396 214.185C382.396 199.685 366.201 171.213 357.656 165.713C354.701 181.713 353.336 196.093 360.896 214.185C370.499 237.161 379.16 239.44 382.525 231.183M383.396 214.185C384.496 221.41 384.066 227.401 382.525 231.183M329.896 150.685C323.396 139.186 336.396 136.687 343.396 150.685C351.412 166.713 328.147 174.213 312.396 148.687C299.172 127.254 297.874 111.388 304.997 108.183M304.997 108.183C312.664 104.733 330.087 115.952 352.896 150.684C371.896 187.683 323.5 219.713 281.396 146.185C267.5 121.917 271.241 107.861 278.395 102.24M304.997 108.183C294.33 99.3693 284.296 97.6035 278.395 102.24M278.5 336.213C282.5 349.213 297.5 341.713 291.396 324.683C284.047 304.177 239.896 318.183 264.396 354.183C280.396 375.683 322.424 363.745 324.396 326.683C326.896 279.713 238.521 250.683 221.896 334.683C212.396 382.683 272.896 425.683 326.896 358.183C340.79 341.974 359.717 339.553 367.895 348.023M337.896 378.183C324.396 389.683 337.896 404.183 353.896 378.183C363.396 359.683 348.896 354.183 330.896 369.183C289.542 413.378 301.802 434.255 325.395 423.129M140.896 196.683C171.396 175.183 118.395 162.183 119.396 195.683C119.934 213.675 154.953 228.185 171.396 198.183C190.373 163.56 154.539 138.667 124.895 145.717M189.395 271.683C173.895 253.183 161.395 298.183 186.895 296.183C221.896 292.183 212.395 250.973 188.395 247.183C159.895 242.683 134.799 265.183 147.395 302.183C163.396 349.183 238.897 330.183 237.895 285.183C240.395 236.683 188.452 220.183 163.396 231.183C122.395 249.183 92.8953 223.683 91.3963 198.183C91.3963 184.539 94.1755 173.828 98.7306 165.683M382.525 231.183C392.193 247.637 396.427 295.731 387.395 308.983M383.895 285.683C378.895 241.183 362.395 314.183 383.395 312.183C384.944 311.741 386.272 310.631 387.395 308.983M387.395 308.983C388.395 329.183 380.395 348.023 367.895 348.023M367.895 348.023C372.079 352.356 373.45 359.538 369.897 369.183C356.81 399.227 339.171 416.633 325.395 423.129M367.895 348.023C352 331.561 349.896 302.742 361.095 289.183M361.095 289.183C364.65 284.879 367.673 279.549 369.897 273.185C385.396 214.185 327.396 176.685 290.897 228.185C277.396 244.685 247.896 255.185 227.897 244.685C184.081 218.342 186.366 182.75 205.072 161.683M325.395 423.129C321.895 434.183 300.395 445.183 294.895 441.683M294.895 441.683C320.895 405.683 258.5 402.06 223.395 418.683C188.04 435.424 151.395 440.183 136.895 417.683C121.702 394.107 125.5 369.56 141.284 355.683M294.895 441.683C270.644 463.786 239.418 466.287 222.395 459.717M250.395 431.183C226.895 441.683 270.895 459.717 270.895 431.183C270.895 413.302 228.78 414.606 212.395 439.183C206.605 447.869 211.693 455.586 222.395 459.717M141.284 355.683C199 310.85 250.615 376.504 210 404.06C181.895 423.129 148.642 406.328 160.395 377.683C172.5 348.183 219 377.683 185 393.683M141.284 355.683C126.48 367.183 119 370.111 104.895 367.183C22.9897 350.183 58.3954 254.063 107.395 262.683C161.395 272.183 154.395 343.943 104.895 340.183C65.3954 337.183 82.3954 287.558 104.895 297.683C114.895 302.183 115.395 318.183 104.895 315.683M222.395 459.717C194.895 467.183 153.395 464.183 135.395 453.683M135.395 453.683C118.895 464.183 86.3953 452.183 78.3953 429.183M135.395 453.683C158.395 432.867 120.887 391.588 78.3953 399.183C59.5 402.56 54.3953 398.683 44.8953 393.683M44.8953 393.683C52.8135 410.717 59.3788 420.538 78.3953 429.183M44.8953 393.683C22.7756 378.515 19.4285 359.371 22.9897 345.683M78.3953 429.183C74.3953 396.683 108.395 406.683 120.395 426.183C130.549 442.683 109.168 450.683 99.8953 438.683C91.3953 427.683 106.395 425.183 110.895 433.183M47.3954 364.183C62.8954 366.183 50.3955 344.183 40.3953 348.183C27.8955 353.183 43.3955 383.683 63.3954 376.183C86.0619 367.683 55.8955 317.183 33.8955 329.183C32.0017 330.216 30.1079 331.932 28.3989 334.183M8.39551 299.183C8.39551 310.683 17.3955 313.683 17.3955 299.183C17.3955 284.6 10.5608 274.057 5.70718 285.183M22.9897 345.683C12.3954 351.183 -0.424228 320.683 2.39551 299.183C3.2425 292.725 4.40336 288.172 5.70718 285.183M22.9897 345.683C24.1741 341.131 26.1226 337.182 28.3989 334.183M5.70718 285.183C4.33055 267.516 6.11814 256.329 9.39545 252.844M28.3989 334.183C32.3954 318.683 31.1328 305.683 27.3954 287.183C21.5524 258.26 14.0022 247.944 9.39545 252.844M278.395 102.24C270.897 94.1831 246.895 88.1831 241.395 90.1831M241.395 90.1831C273.799 109.683 255.397 141.183 207.395 141.183C139.395 134.683 178.895 97.1831 207.395 106.683C221.895 108.183 223.895 121.183 207.395 122.183M241.395 90.1831C225.174 80.4215 189.733 76.2461 164.395 91.8808M205.072 161.683C139.395 161.683 140.896 112.912 154.395 99.6831C157.475 96.665 160.836 94.0774 164.395 91.8808M118.895 106.683C127.895 96.1831 147.895 90.1831 164.395 91.8808M118.895 106.683C134.395 106.683 140.896 128.183 124.895 145.717M118.895 106.683C93.8954 99.6831 53.8954 128.183 53.8954 156.183M9.39545 252.844C9.39545 249.917 10.5578 244.525 12.5965 237.683M53.8954 156.183C50.8954 191.683 70.3954 184.183 77.3954 201.683C82.3954 214.183 88.3954 247.183 77.3954 266.183C60.027 296.183 31.3954 287.183 25.8954 255.183C12.9189 179.683 83.3954 185.683 64.3954 252.844C60.6216 266.183 43.6128 263.44 41.3954 248.183C36 211.06 62.8954 220.183 52.8954 243.183M53.8954 156.183C49.4208 160.551 44.8326 166.849 40.3824 174.183M88.3954 150.183C125.395 127.683 100.395 114.683 77.3954 143.183C62.4656 161.683 75.8954 177.683 98.7306 165.683M98.7306 165.683C104.976 154.516 114.559 148.175 124.895 145.717M40.3824 174.183C28.5925 193.613 17.7714 220.317 12.5965 237.683M40.3824 174.183C22.8954 178.183 5.70718 209.183 12.5965 237.683" stroke="black" stroke-width="4" stroke-linecap="round"/>
<path d="M343.115 41.9702C343.115 64.1348 317 55.5603 329.115 41.9702C308.5 33.5603 309 67.5603 329.115 67.5603C364 67.5603 364 21.5603 331.5 17.0603C310 13.0603 267.445 34.7074 216.115 53.4702C209 56.0708 203.615 62.5603 203.615 72.5603V100.47C209.115 109.97 208.115 118.47 203.115 120.47C198.115 122.47 190.615 122.97 188.615 117.47C186.07 110.47 188.115 104.97 191.115 99.4702C192.115 85.9702 190 65.5603 186.5 63.5603C180 62.0603 133.139 74.5603 70.754 54.4702C59 68.0603 47.323 54.4702 55.6147 39.9702C65.8251 22.1148 76.53 25.5001 77.6313 34.9792C103.141 50.2379 164.122 53.4683 193.615 44.4702C244.969 27.3819 306 0.560303 327.5 2.06031C384.5 6.03707 381.041 84.4789 325.5 79.0603C305 77.0603 296.115 58.4695 301.615 41.9702C308.615 20.9702 341.615 22.9702 343.115 41.9702Z" fill="#BEB35A"/>
<path d="M70.754 54.4702C133.139 74.5603 180 62.0603 186.5 63.5603C190 65.5603 192.115 85.9702 191.115 99.4702C188.115 104.97 186.07 110.47 188.615 117.47C190.615 122.97 198.115 122.47 203.115 120.47C208.115 118.47 209.115 109.97 203.615 100.47V72.5603C203.615 62.5603 209 56.0708 216.115 53.4702C267.445 34.7074 310 13.0603 331.5 17.0603C364 21.5603 364 67.5603 329.115 67.5603C309 67.5603 308.5 33.5603 329.115 41.9702C317 55.5603 343.115 64.1348 343.115 41.9702C341.615 22.9702 308.615 20.9702 301.615 41.9702C296.115 58.4695 305 77.0603 325.5 79.0603C381.041 84.4789 384.5 6.03707 327.5 2.06031C306 0.560303 244.969 27.3819 193.615 44.4702C164.115 53.4702 103.115 50.2365 77.6147 34.9692M70.754 54.4702C59 68.0603 47.323 54.4702 55.6147 39.9702C67 20.0603 79 26.5603 77.6147 38.4702M70.754 54.4702C72.4059 52.5603 74 50.0603 75 47.0603" stroke="black" stroke-width="3" stroke-linecap="round"/>
</svg>
