<svg width="613" height="271" viewBox="0 0 613 271" fill="none" xmlns="http://www.w3.org/2000/svg">
<path fill-rule="evenodd" clip-rule="evenodd" d="M493.263 177.218C493.183 177.326 493.095 177.409 493.001 177.466C471.494 216.823 140.5 216.5 122.5 177.504C122.482 177.465 122.465 177.426 122.448 177.384C-28.6475 214.877 -35.3009 231.968 96.2601 253.942C255.871 272.365 340.744 270.352 489.76 260.442C665.791 248.735 632.297 208.307 493.263 177.218ZM127.268 155.978C147.595 -46.1486 468.908 -49.8529 488.796 156.05C422.55 183.505 203.922 185.969 128.001 155.965C127.751 155.912 127.507 155.918 127.268 155.978Z" fill="#E3A61E"/>
<path d="M493.001 177.466L491.715 175.322L491.132 175.671L490.807 176.267L493.001 177.466ZM493.263 177.218L493.809 174.778L492.23 174.425L491.261 175.721L493.263 177.218ZM122.5 177.504L124.77 176.456L124.77 176.456L122.5 177.504ZM122.448 177.384L124.761 176.435L123.941 174.438L121.846 174.958L122.448 177.384ZM96.2601 253.942L95.8482 256.408L95.9106 256.418L95.9734 256.425L96.2601 253.942ZM489.76 260.442L489.594 257.947L489.594 257.947L489.76 260.442ZM488.796 156.05L489.754 158.36L491.463 157.652L491.285 155.81L488.796 156.05ZM127.268 155.978L124.78 155.728L124.423 159.276L127.881 158.402L127.268 155.978ZM128.001 155.965L128.919 153.64L128.727 153.564L128.525 153.521L128.001 155.965ZM494.287 179.609C494.722 179.348 495.039 179.017 495.265 178.715L491.261 175.721C491.326 175.634 491.468 175.47 491.715 175.322L494.287 179.609ZM120.23 178.552C121.647 181.621 124.459 184.23 128.067 186.483C131.709 188.757 136.394 190.814 141.904 192.681C152.927 196.415 167.588 199.499 184.603 201.958C218.656 206.88 262.517 209.349 306.434 209.367C350.353 209.385 394.431 206.951 428.921 202.034C446.156 199.577 461.084 196.488 472.428 192.74C478.099 190.867 482.951 188.804 486.773 186.528C490.562 184.272 493.545 181.684 495.194 178.664L490.807 176.267C489.768 178.167 487.645 180.189 484.214 182.232C480.815 184.257 476.333 186.185 470.86 187.993C459.917 191.608 445.317 194.646 428.215 197.084C394.033 201.957 350.205 204.385 306.436 204.367C262.667 204.35 219.06 201.886 185.318 197.01C168.435 194.57 154.115 191.538 143.508 187.945C138.202 186.147 133.91 184.237 130.715 182.242C127.487 180.225 125.603 178.261 124.77 176.456L120.23 178.552ZM120.136 178.334C120.165 178.407 120.197 178.479 120.23 178.552L124.77 176.456C124.768 176.452 124.765 176.445 124.761 176.435L120.136 178.334ZM121.846 174.958C84.0577 184.335 55.2038 192.459 35.2564 199.724C25.2905 203.355 17.4508 206.805 11.8033 210.137C6.29103 213.389 2.34235 216.824 0.998753 220.655C0.284137 222.693 0.335142 224.765 1.16685 226.753C1.97012 228.672 3.43818 230.369 5.31901 231.891C9.0512 234.911 14.9701 237.686 22.7967 240.349C38.5221 245.698 62.95 250.913 95.8482 256.408L96.6719 251.476C63.7897 245.984 39.7138 240.822 24.407 235.615C16.7175 232.999 11.4881 230.451 8.46419 228.004C6.96698 226.793 6.15503 225.721 5.77939 224.823C5.43218 223.993 5.40535 223.199 5.71703 222.31C6.42603 220.288 8.94646 217.628 14.3441 214.443C19.6066 211.338 27.1177 208.01 36.9677 204.422C56.6522 197.252 85.2908 189.18 123.05 179.811L121.846 174.958ZM95.9734 256.425C255.78 274.871 340.813 272.853 489.926 262.936L489.594 257.947C340.675 267.851 255.962 269.859 96.5467 251.458L95.9734 256.425ZM489.926 262.936C533.985 260.006 565.128 255.27 584.85 249.262C594.683 246.267 601.914 242.888 606.484 239.083C611.137 235.21 613.324 230.597 612.09 225.509C610.937 220.754 606.924 216.29 601.133 212.1C595.259 207.85 587.149 203.594 577.09 199.385C556.957 190.96 528.635 182.566 493.809 174.778L492.717 179.658C527.408 187.415 555.41 195.733 575.16 203.997C585.042 208.133 592.763 212.216 598.202 216.151C603.726 220.147 606.51 223.714 607.231 226.687C607.871 229.327 607.011 232.139 603.285 235.24C599.479 238.409 593.002 241.553 583.393 244.479C564.232 250.316 533.551 255.024 489.594 257.947L489.926 262.936ZM491.285 155.81C481.183 51.2238 394.449 0.0442111 308.183 0.503079C221.94 0.96183 135.107 53.0384 124.78 155.728L129.755 156.229C139.755 56.7913 223.743 5.95231 308.21 5.50301C392.654 5.05383 476.522 54.9737 486.308 156.291L491.285 155.81ZM487.839 153.741C471.611 160.467 445.81 165.739 414.861 169.356C383.971 172.966 348.155 174.906 312.016 175.055C275.878 175.203 239.458 173.559 207.363 170.012C175.221 166.46 147.586 161.017 128.919 153.64L127.082 158.29C146.376 165.915 174.54 171.415 206.814 174.982C239.134 178.554 275.747 180.204 312.037 180.055C348.326 179.906 384.333 177.958 415.441 174.322C446.489 170.693 472.859 165.362 489.754 158.36L487.839 153.741ZM128.525 153.521C127.893 153.385 127.26 153.402 126.655 153.555L127.881 158.402C127.753 158.434 127.609 158.438 127.476 158.41L128.525 153.521Z" fill="black"/>
<path d="M489.001 155.966C423 183.5 204 186 128.001 155.965C123.5 155 120.652 173.5 122.5 177.504C140.5 216.5 471.494 216.823 493.001 177.466C495.501 175.966 493.001 155.966 489.001 155.966Z" fill="#FF3100" stroke="black" stroke-width="5"/>
</svg>
