<svg width="56" height="57" viewBox="0 0 56 57" fill="none" xmlns="http://www.w3.org/2000/svg">
<circle cx="28" cy="29" r="23.5" stroke="black" stroke-width="9"/>
<circle cx="28.0813" cy="28.9191" r="24.7826" fill="black" stroke="white" stroke-width="4"/>
<path d="M35.5348 49.2898C35.5348 53.2526 32.181 56.4999 28 56.4999C23.8191 56.4999 20.4653 53.2526 20.4653 49.2898C20.4653 45.327 23.8191 42.0797 28 42.0797C32.181 42.0797 35.5348 45.327 35.5348 49.2898Z" fill="white" stroke="black"/>
<path d="M27.1883 44.9883L25.971 51.1751M27.1883 44.9883C28.1032 45.0793 28.9282 45.0486 29.7854 44.9883M27.1883 44.9883C26.2358 44.8936 25.5172 44.8607 24.5912 44.5825M25.971 51.1751C27.681 51.3227 29.5066 51.3142 31.1652 51.1394M25.971 51.1751C24.5351 51.0512 23.1808 50.8171 22.0753 50.4791M29.7854 44.9883L31.1652 51.1394M29.7854 44.9883C30.6627 44.9266 31.4076 44.7841 32.1391 44.5825M31.1652 51.1394C32.2676 51.0232 33.2962 50.8335 34.1681 50.5674M32.1391 44.5825C32.9102 44.37 33.0083 44.3608 33.5188 44.0144C34.0869 44.5014 34.5738 44.6637 35.0608 45.4753M32.1391 44.5825L34.1681 50.5674M34.1681 50.5674C34.9276 50.3355 35.2434 50.0455 35.7101 49.6956C35.9461 48.7041 35.5181 46.5303 35.0608 45.4753M24.5912 44.5825C24.0048 44.4063 23.3517 44.2707 22.8057 44.0144C21.913 44.339 21.3043 44.8222 20.8579 45.5564M24.5912 44.5825L22.0753 50.4791M22.0753 50.4791C21.3613 50.2608 20.7511 49.999 20.2898 49.6956C20.0463 48.397 20.2898 46.6927 20.8579 45.5564M20.8579 45.5564C22.233 47.9743 34.0747 48.4465 35.0608 45.4753" stroke="black"/>
<path d="M3.41258 4.81466C0.00379932 4.81466 1.05884 12.2813 6.65895 9.44075L14.7748 17.3944C15.1806 16.7451 16.398 15.2031 17.6966 14.5538L9.49953 6.60017C13.3139 1.00015 5.76608 -0.541873 5.27913 2.86682L5.03576 4.81466H3.41258Z" fill="white" stroke="black"/>
<path d="M52.0808 4.36883C52.3354 0.969569 44.8108 1.46401 47.2252 7.26063L38.6876 14.7598C39.3048 15.213 40.7516 16.5421 41.3021 17.8855L49.8457 10.3054C55.1452 14.5274 57.2466 7.11582 53.8838 6.37564L51.9596 5.98748L52.0808 4.36883Z" fill="white" stroke="black"/>
<path d="M53.3253 48.8029C56.9776 48.3971 54.5427 41.4986 49.998 44.3392L42.1253 37.1971C41.6384 37.7652 40.5022 39.0638 39.5282 40.2L46.5082 47.3421C43.1806 52.8609 50.8094 53.916 51.2154 51.0754L51.4588 49.053L53.3253 48.8029Z" fill="white" stroke="black"/>
<path d="M4.81712 50.9184C5.20989 54.5715 12.1442 52.1622 9.311 47.6079L16.3979 39.6318C15.8296 39.1428 14.9371 38.1709 14.1255 37.0347L6.31067 44.1077C0.784278 40.7605 -0.305202 48.3842 2.54447 48.8005L4.57356 49.0513L4.81712 50.9184Z" fill="white" stroke="black"/>
<path d="M44.6247 28.9188C44.6247 37.7708 37.1976 44.9753 28.0001 44.9753C18.8025 44.9753 11.3754 37.7708 11.3754 28.9188C11.3754 20.0668 18.8025 12.8623 28.0001 12.8623C37.1976 12.8623 44.6247 20.0668 44.6247 28.9188Z" fill="white" stroke="black"/>
<circle cx="20.6959" cy="33.0581" r="5.43768" fill="black"/>
<circle cx="35.3855" cy="33.1392" r="5.35652" fill="black"/>
<circle cx="28.0004" cy="39.3884" r="2.1913" fill="black"/>
<path d="M12.8228 22.0295C15.9003 6.64222 40.0076 6.38564 43.2581 21.5539L12.8228 22.0295Z" fill="#FECB00" stroke="black"/>
<path d="M54.3769 24.4755L42.8288 21.517C42.679 20.7271 36.2823 18.7646 28.974 18.6395C21.2162 18.5067 13.5033 20.5466 12.8229 22.0299C12.2548 22.0299 1.7856 23.4204 1.7856 25.2059C3.19008 27.153 56.7307 26.178 54.3769 24.4755Z" fill="#FECB00" stroke="black"/>
<path d="M14 19.4652L13 22C16 21.5 41.9483 20.7177 44 22L42 19.4652C40.7177 17.9266 14.5129 18.1828 14 19.4652Z" fill="#FF0000" stroke="black"/>
</svg>
