<svg width="81" height="82" viewBox="0 0 81 82" fill="none" xmlns="http://www.w3.org/2000/svg">
<circle cx="40.1463" cy="41.1463" r="35.6463" stroke="black" stroke-width="9"/>
<circle cx="40.263" cy="41.0303" r="33.9009" fill="black" stroke="white" stroke-width="9"/>
<path d="M50.6667 70.2378C50.6667 75.7525 45.9959 80.2926 40.1464 80.2926C34.297 80.2926 29.6262 75.7525 29.6262 70.2378C29.6262 64.7232 34.297 60.183 40.1464 60.183C45.9959 60.183 50.6667 64.7232 50.6667 70.2378Z" fill="white" stroke="black" stroke-width="2"/>
<path d="M38.9826 64.0704L37.2371 72.941M38.9826 64.0704C40.2943 64.2008 41.4772 64.1568 42.7063 64.0704M38.9826 64.0704C37.6168 63.9345 36.5865 63.8874 35.2589 63.4885M37.2371 72.941C39.6889 73.1527 42.3065 73.1405 44.6845 72.8898M37.2371 72.941C35.1784 72.7633 33.2365 72.4277 31.6515 71.9431M42.7063 64.0704L44.6845 72.8898M42.7063 64.0704C43.9642 63.9819 45.0321 63.7775 46.0809 63.4885M44.6845 72.8898C46.2652 72.7232 47.7401 72.4512 48.9901 72.0696M46.0809 63.4885C47.1866 63.1839 47.3272 63.1707 48.0591 62.674C48.8737 63.3722 49.5719 63.6049 50.2701 64.7686M46.0809 63.4885L48.9901 72.0696M48.9901 72.0696C50.0791 71.7371 50.532 71.3214 51.201 70.8196C51.5395 69.3981 50.9258 66.2813 50.2701 64.7686M35.2589 63.4885C34.4181 63.2359 33.4816 63.0414 32.6988 62.674C31.4188 63.1394 30.5461 63.8322 29.906 64.8849M35.2589 63.4885L31.6515 71.9431M31.6515 71.9431C30.6278 71.63 29.7529 71.2548 29.0915 70.8196C28.7423 68.9578 29.0915 66.5141 29.906 64.8849M29.906 64.8849C31.8776 68.3517 48.8563 69.0287 50.2701 64.7686" stroke="black" stroke-width="2"/>
<path d="M4.89295 6.46947C0.00544739 6.46947 1.51817 17.1752 9.54759 13.1023L21.1841 24.5062C21.7659 23.5753 23.5114 21.3643 25.3733 20.4334L13.6204 9.02953C19.0895 1.00024 8.2674 -1.21071 7.5692 3.67666L7.22027 6.46947H4.89295Z" fill="white" stroke="black" stroke-width="2"/>
<path d="M74.6734 5.83022C75.0384 0.956371 64.2496 1.6653 67.7114 9.97649L55.4703 20.7288C56.3552 21.3785 58.4296 23.2843 59.2188 25.2104L71.4687 14.3421C79.0671 20.3956 82.0801 9.76885 77.2585 8.70758L74.4996 8.15104L74.6734 5.83022Z" fill="white" stroke="black" stroke-width="2"/>
<path d="M76.4577 69.5397C81.6943 68.9579 78.2033 59.0668 71.687 63.1396L60.3992 52.8994C59.7011 53.7139 58.0719 55.5758 56.6755 57.2049L66.6833 67.4452C61.9122 75.3581 72.8504 76.8708 73.4325 72.798L73.7816 69.8983L76.4577 69.5397Z" fill="white" stroke="black" stroke-width="2"/>
<path d="M6.90679 72.5729C7.46993 77.8108 17.4123 74.3564 13.3501 67.8263L23.5113 56.3902C22.6965 55.6892 21.4167 54.2956 20.2531 52.6665L9.04824 62.8078C1.1245 58.0086 -0.437589 68.9395 3.64827 69.5363L6.55757 69.8959L6.90679 72.5729Z" fill="white" stroke="black" stroke-width="2"/>
<path d="M63.6997 41.0299C63.6997 53.5567 53.1866 63.7686 40.1464 63.7686C27.1062 63.7686 16.5931 53.5567 16.5931 41.0299C16.5931 28.5032 27.1062 18.2912 40.1464 18.2912C53.1866 18.2912 63.6997 28.5032 63.6997 41.0299Z" fill="white" stroke="black" stroke-width="2"/>
<circle cx="29.6737" cy="46.9648" r="7.79654" fill="black"/>
<circle cx="50.7357" cy="47.0811" r="7.68017" fill="black"/>
<circle cx="40.1469" cy="56.0412" r="3.14189" fill="black"/>
<path d="M18.3853 31.1521C22.7979 9.08983 57.3628 8.72195 62.0234 30.4701L18.3853 31.1521Z" fill="#FECB00" stroke="black" stroke-width="2"/>
<path d="M77.9655 34.6591L61.4078 30.4172C61.1931 29.2847 52.0215 26.4708 41.5429 26.2914C30.4197 26.101 19.3609 29.0259 18.3855 31.1526C17.5709 31.1526 2.56018 33.1463 2.56018 35.7064C4.57393 38.4981 81.3404 37.1002 77.9655 34.6591Z" fill="#FECB00" stroke="black" stroke-width="2"/>
<path d="M21.3276 27.4753L18.7536 31.1523C22.4307 30.0492 59.5697 29.3137 62.5114 31.1523L59.2019 27.4754C57.3634 25.2694 22.063 25.6367 21.3276 27.4753Z" fill="#FF0000" stroke="black" stroke-width="2"/>
</svg>
