<svg width="51" height="52" viewBox="0 0 51 52" fill="none" xmlns="http://www.w3.org/2000/svg">
<path d="M12.5771 2V11.9262M38.4505 2V11.9262M48.8649 17.9471V45.2849C48.8649 49.1903 48.0512 50.1667 44.3086 50.1667H6.23086C2.48818 50.1667 2 48.8649 2 45.2849V11.2753C2 8.18356 2.32545 6.88176 6.23086 6.88176H44.3086C46.424 6.88176 48.8649 7.04448 48.8649 11.9262V17.9471ZM48.8649 17.9471H2" stroke="white" stroke-width="3" stroke-linecap="round"/>
<path d="M18.9234 26.4088C20.0037 26.4088 21.6898 26.4088 21.6898 26.4088M29.3378 26.4088H32.1042M39.7523 26.4088H42.5186M8.50901 26.4088H11.2753M18.9234 33.4059H21.6898M29.3378 33.4059H32.1042M39.7523 33.4059H42.5186M8.50901 33.4059H11.2753M18.9234 40.2404H21.6898M29.3378 40.2404H32.1042M39.7523 40.2404H42.5186M8.50901 40.2404H11.2753" stroke="white" stroke-width="3" stroke-linecap="square"/>
</svg>
